<svg width="272" height="16" viewBox="0 0 272 16" fill="none" xmlns="http://www.w3.org/2000/svg">
<path d="M9.11131 8C9.11131 10.5041 7.1651 12.5 4.80565 12.5C2.4462 12.5 0.5 10.5041 0.5 8C0.5 5.49585 2.4462 3.5 4.80565 3.5C7.1651 3.5 9.11131 5.49585 9.11131 8Z" stroke="white"/>
<path d="M5.00525 10.2964C5.35974 10.2964 5.66947 10.189 5.93445 9.97412C6.19942 9.75928 6.34623 9.49072 6.37488 9.16846H7.31482C7.29692 9.50146 7.18233 9.81836 6.97107 10.1191C6.75981 10.4199 6.47693 10.6598 6.12244 10.8389C5.77153 11.0179 5.39913 11.1074 5.00525 11.1074C4.21391 11.1074 3.5837 10.8442 3.11462 10.3179C2.64913 9.78792 2.41638 9.06462 2.41638 8.14795V7.98145C2.41638 7.41569 2.52022 6.9126 2.72791 6.47217C2.93559 6.03174 3.23279 5.68978 3.61951 5.44629C4.00981 5.2028 4.46993 5.08105 4.99988 5.08105C5.65157 5.08105 6.19226 5.2762 6.62195 5.6665C7.05522 6.0568 7.28617 6.56348 7.31482 7.18652H6.37488C6.34623 6.81055 6.203 6.5026 5.94519 6.2627C5.69096 6.01921 5.37585 5.89746 4.99988 5.89746C4.495 5.89746 4.10291 6.08008 3.82361 6.44531C3.54789 6.80697 3.41003 7.33154 3.41003 8.01904V8.20703C3.41003 8.87663 3.54789 9.39225 3.82361 9.75391C4.09932 10.1156 4.4932 10.2964 5.00525 10.2964Z" fill="white"/>
<path d="M19.6138 8.33984C19.5162 9.23828 19.1939 9.92578 18.647 10.4023C18.1041 10.8789 17.3795 11.1172 16.4732 11.1172C15.8404 11.1172 15.2798 10.959 14.7916 10.6426C14.3072 10.3262 13.9322 9.87891 13.6666 9.30078C13.4009 8.71875 13.2662 8.05469 13.2623 7.30859V6.20117C13.2623 5.44336 13.3951 4.77148 13.6607 4.18555C13.9263 3.59961 14.3072 3.14844 14.8033 2.83203C15.3033 2.51172 15.8775 2.35156 16.5259 2.35156C17.44 2.35156 18.1607 2.59961 18.688 3.0957C19.2193 3.58789 19.5279 4.26953 19.6138 5.14062H18.8873C18.7076 3.69141 17.9205 2.9668 16.5259 2.9668C15.7525 2.9668 15.1353 3.25586 14.6744 3.83398C14.2173 4.41211 13.9888 5.21094 13.9888 6.23047V7.27344C13.9888 8.25781 14.2115 9.04297 14.6568 9.62891C15.106 10.2148 15.7115 10.5078 16.4732 10.5078C17.2271 10.5078 17.7955 10.3281 18.1783 9.96875C18.5611 9.60547 18.7974 9.0625 18.8873 8.33984H19.6138ZM20.815 7.73633C20.815 7.12695 20.9322 6.57812 21.1666 6.08984C21.4048 5.60156 21.7388 5.22266 22.1685 4.95312C22.6021 4.67969 23.0923 4.54297 23.6392 4.54297C24.483 4.54297 25.1666 4.83984 25.69 5.43359C26.2134 6.02344 26.4752 6.80664 26.4752 7.7832V7.92969C26.4752 8.54297 26.356 9.0957 26.1177 9.58789C25.8834 10.0762 25.5513 10.4531 25.1216 10.7188C24.692 10.9844 24.2017 11.1172 23.6509 11.1172C22.8111 11.1172 22.1275 10.8223 21.6002 10.2324C21.0767 9.63867 20.815 8.85352 20.815 7.87695V7.73633ZM21.5181 7.92969C21.5181 8.6875 21.7134 9.31055 22.1041 9.79883C22.4986 10.2832 23.0142 10.5254 23.6509 10.5254C24.2838 10.5254 24.7955 10.2832 25.1861 9.79883C25.5806 9.31055 25.7779 8.66797 25.7779 7.87109V7.73633C25.7779 7.25195 25.688 6.80859 25.5084 6.40625C25.3287 6.00391 25.0767 5.69336 24.7525 5.47461C24.4283 5.25195 24.0572 5.14062 23.6392 5.14062C23.0142 5.14062 22.5045 5.38672 22.1099 5.87891C21.7154 6.36719 21.5181 7.00781 21.5181 7.80078V7.92969ZM33.0259 7.89453C33.0259 8.88281 32.8072 9.66797 32.3697 10.25C31.9322 10.8281 31.3463 11.1172 30.6119 11.1172C29.7447 11.1172 29.0806 10.8125 28.6197 10.2031V13.4375H27.9224V4.66016H28.5728L28.608 5.55664C29.065 4.88086 29.7271 4.54297 30.5943 4.54297C31.3521 4.54297 31.9459 4.83008 32.3755 5.4043C32.8091 5.97852 33.0259 6.77539 33.0259 7.79492V7.89453ZM32.3228 7.77148C32.3228 6.96289 32.1568 6.32422 31.8248 5.85547C31.4927 5.38672 31.0298 5.15234 30.4361 5.15234C30.0064 5.15234 29.6373 5.25586 29.3287 5.46289C29.0201 5.66992 28.7838 5.9707 28.6197 6.36523V9.40625C28.7877 9.76953 29.0279 10.0469 29.3404 10.2383C29.6529 10.4297 30.022 10.5254 30.4478 10.5254C31.0377 10.5254 31.4966 10.291 31.8248 9.82227C32.1568 9.34961 32.3228 8.66602 32.3228 7.77148ZM36.524 9.99219L38.3755 4.66016H39.1314L36.4244 12.0781L36.2838 12.4062C35.9361 13.1758 35.399 13.5605 34.6724 13.5605C34.5045 13.5605 34.3248 13.5332 34.1334 13.4785L34.1275 12.8984L34.4908 12.9336C34.8345 12.9336 35.1119 12.8477 35.3228 12.6758C35.5377 12.5078 35.7193 12.2168 35.8677 11.8027L36.1783 10.9473L33.7877 4.66016H34.5552L36.524 9.99219ZM43.1509 5.25781C43.0025 5.23047 42.8443 5.2168 42.6763 5.2168C42.2388 5.2168 41.8677 5.33984 41.563 5.58594C41.2623 5.82812 41.0474 6.18164 40.9185 6.64648V11H40.2213V4.66016H40.9068L40.9185 5.66797C41.2896 4.91797 41.8853 4.54297 42.7056 4.54297C42.9009 4.54297 43.0552 4.56836 43.1685 4.61914L43.1509 5.25781ZM45.0494 11H44.3463V4.66016H45.0494V11ZM44.2232 2.82617C44.2232 2.69336 44.2662 2.58203 44.3521 2.49219C44.438 2.39844 44.5552 2.35156 44.7037 2.35156C44.8521 2.35156 44.9693 2.39844 45.0552 2.49219C45.1451 2.58203 45.19 2.69336 45.19 2.82617C45.19 2.95898 45.1451 3.07031 45.0552 3.16016C44.9693 3.25 44.8521 3.29492 44.7037 3.29492C44.5552 3.29492 44.438 3.25 44.3521 3.16016C44.2662 3.07031 44.2232 2.95898 44.2232 2.82617ZM46.6783 7.77148C46.6783 6.7793 46.897 5.99414 47.3345 5.41602C47.7759 4.83398 48.3736 4.54297 49.1275 4.54297C49.9908 4.54297 50.647 4.88672 51.0963 5.57422L51.1314 4.66016H51.7877V10.8711C51.7877 11.6875 51.5591 12.334 51.1021 12.8105C50.6451 13.2871 50.0259 13.5254 49.2447 13.5254C48.8033 13.5254 48.3814 13.4258 47.9791 13.2266C47.5806 13.0312 47.2662 12.7695 47.0357 12.4414L47.4283 12.0195C47.9244 12.6289 48.5142 12.9336 49.1978 12.9336C49.7838 12.9336 50.2408 12.7598 50.5689 12.4121C50.897 12.0684 51.067 11.5898 51.0787 10.9766V10.1797C50.6295 10.8047 49.9752 11.1172 49.1158 11.1172C48.3814 11.1172 47.7916 10.8242 47.3463 10.2383C46.9009 9.65234 46.6783 8.86133 46.6783 7.86523V7.77148ZM47.3873 7.89453C47.3873 8.70312 47.5494 9.3418 47.8736 9.81055C48.1978 10.2754 48.6548 10.5078 49.2447 10.5078C50.108 10.5078 50.7193 10.1211 51.0787 9.34766V6.40039C50.9146 5.99414 50.6783 5.68555 50.3697 5.47461C50.0611 5.25977 49.69 5.15234 49.2564 5.15234C48.6666 5.15234 48.2076 5.38477 47.8795 5.84961C47.5513 6.31055 47.3873 6.99219 47.3873 7.89453ZM54.313 5.73242C54.5435 5.35352 54.8384 5.06055 55.1978 4.85352C55.5572 4.64648 55.9498 4.54297 56.3755 4.54297C57.0552 4.54297 57.5611 4.73438 57.8931 5.11719C58.2252 5.5 58.3931 6.07422 58.397 6.83984V11H57.6998V6.83398C57.6959 6.26758 57.5748 5.8457 57.3365 5.56836C57.1021 5.29102 56.7252 5.15234 56.2056 5.15234C55.772 5.15234 55.3873 5.28906 55.0513 5.5625C54.7193 5.83203 54.4732 6.19727 54.313 6.6582V11H53.6158V2H54.313V5.73242ZM61.2916 3.03711V4.66016H62.6041V5.23438H61.2916V9.45898C61.2916 9.81055 61.3541 10.0723 61.4791 10.2441C61.608 10.416 61.8209 10.502 62.1177 10.502C62.2349 10.502 62.4244 10.4824 62.6861 10.4434L62.7154 11.0176C62.5318 11.084 62.2818 11.1172 61.9654 11.1172C61.4849 11.1172 61.1353 10.9785 60.9166 10.7012C60.6978 10.4199 60.5884 10.0078 60.5884 9.46484V5.23438H59.4224V4.66016H60.5884V3.03711H61.2916ZM72.2076 11H66.8638V10.4609L69.7877 7.14453C70.272 6.58594 70.608 6.125 70.7955 5.76172C70.983 5.39844 71.0767 5.04492 71.0767 4.70117C71.0767 4.16211 70.9185 3.73633 70.6021 3.42383C70.2857 3.10742 69.8502 2.94922 69.2955 2.94922C68.7213 2.94922 68.2564 3.13281 67.9009 3.5C67.5494 3.86719 67.3736 4.34375 67.3736 4.92969H66.6763C66.6763 4.44922 66.7838 4.01172 66.9986 3.61719C67.2173 3.22266 67.5259 2.91406 67.9244 2.69141C68.3267 2.46484 68.7838 2.35156 69.2955 2.35156C70.0767 2.35156 70.6861 2.55664 71.1236 2.9668C71.565 3.37695 71.7857 3.93555 71.7857 4.64258C71.7857 5.04102 71.6607 5.47656 71.4107 5.94922C71.1646 6.42188 70.7291 7.01172 70.1041 7.71875L67.7252 10.4082H72.2076V11ZM78.6646 7.44336C78.6646 8.64648 78.4439 9.56055 78.0025 10.1855C77.5611 10.8066 76.9107 11.1172 76.0513 11.1172C75.2076 11.1172 74.5611 10.8125 74.1119 10.2031C73.6627 9.58984 73.4322 8.69922 73.4205 7.53125V6.00195C73.4205 4.80273 73.6431 3.89453 74.0884 3.27734C74.5338 2.66016 75.1841 2.35156 76.0396 2.35156C76.8834 2.35156 77.5279 2.65039 77.9732 3.24805C78.4185 3.8418 78.649 4.71875 78.6646 5.87891V7.44336ZM77.9615 5.91406C77.9615 4.9375 77.8013 4.19922 77.481 3.69922C77.1646 3.19922 76.6841 2.94922 76.0396 2.94922C75.4068 2.94922 74.9302 3.19336 74.6099 3.68164C74.2896 4.16992 74.1255 4.89062 74.1177 5.84375V7.51953C74.1177 8.49219 74.2818 9.23633 74.6099 9.75195C74.942 10.2676 75.4224 10.5254 76.0513 10.5254C76.6763 10.5254 77.149 10.2734 77.4693 9.76953C77.7935 9.26562 77.9576 8.52734 77.9615 7.55469V5.91406ZM85.5201 11H80.1763V10.4609L83.1002 7.14453C83.5845 6.58594 83.9205 6.125 84.108 5.76172C84.2955 5.39844 84.3892 5.04492 84.3892 4.70117C84.3892 4.16211 84.231 3.73633 83.9146 3.42383C83.5982 3.10742 83.1627 2.94922 82.608 2.94922C82.0338 2.94922 81.5689 3.13281 81.2134 3.5C80.8619 3.86719 80.6861 4.34375 80.6861 4.92969H79.9888C79.9888 4.44922 80.0963 4.01172 80.3111 3.61719C80.5298 3.22266 80.8384 2.91406 81.2369 2.69141C81.6392 2.46484 82.0963 2.35156 82.608 2.35156C83.3892 2.35156 83.9986 2.55664 84.4361 2.9668C84.8775 3.37695 85.0982 3.93555 85.0982 4.64258C85.0982 5.04102 84.9732 5.47656 84.7232 5.94922C84.4771 6.42188 84.0416 7.01172 83.4166 7.71875L81.0377 10.4082H85.5201V11ZM90.0963 11H89.3931V3.3125L87.0728 4.17383V3.51758L89.9791 2.43945H90.0963V11ZM93.5357 10.5781C93.5357 10.4414 93.5787 10.3262 93.6646 10.2324C93.7545 10.1348 93.8775 10.0859 94.0338 10.0859C94.19 10.0859 94.313 10.1348 94.4029 10.2324C94.4927 10.3262 94.5377 10.4414 94.5377 10.5781C94.5377 10.7148 94.4927 10.8281 94.4029 10.918C94.313 11.0039 94.19 11.0469 94.0338 11.0469C93.8775 11.0469 93.7545 11.0039 93.6646 10.918C93.5787 10.8281 93.5357 10.7148 93.5357 10.5781ZM100.174 11H99.4713V2H100.174V11ZM102.753 4.66016L102.776 5.74414C103.014 5.35352 103.311 5.05664 103.667 4.85352C104.022 4.64648 104.415 4.54297 104.844 4.54297C105.524 4.54297 106.03 4.73438 106.362 5.11719C106.694 5.5 106.862 6.07422 106.866 6.83984V11H106.169V6.83398C106.165 6.26758 106.044 5.8457 105.805 5.56836C105.571 5.29102 105.194 5.15234 104.674 5.15234C104.241 5.15234 103.856 5.28906 103.52 5.5625C103.188 5.83203 102.942 6.19727 102.782 6.6582V11H102.085V4.66016H102.753ZM111.026 10.5254C111.514 10.5254 111.922 10.3887 112.251 10.1152C112.583 9.83789 112.762 9.48047 112.79 9.04297H113.463C113.444 9.42969 113.323 9.7832 113.1 10.1035C112.878 10.4199 112.581 10.668 112.21 10.8477C111.842 11.0273 111.448 11.1172 111.026 11.1172C110.194 11.1172 109.534 10.8281 109.045 10.25C108.561 9.67188 108.319 8.89453 108.319 7.91797V7.70703C108.319 7.08203 108.428 6.5293 108.647 6.04883C108.866 5.56836 109.178 5.19727 109.585 4.93555C109.995 4.67383 110.473 4.54297 111.02 4.54297C111.715 4.54297 112.288 4.75 112.737 5.16406C113.19 5.57812 113.432 6.12305 113.463 6.79883H112.79C112.758 6.30273 112.579 5.90234 112.251 5.59766C111.926 5.29297 111.516 5.14062 111.02 5.14062C110.387 5.14062 109.895 5.36914 109.544 5.82617C109.196 6.2832 109.022 6.92383 109.022 7.74805V7.95312C109.022 8.76172 109.196 9.39258 109.544 9.8457C109.895 10.2988 110.389 10.5254 111.026 10.5254ZM118.872 11C118.801 10.8008 118.756 10.5059 118.737 10.1152C118.491 10.4355 118.176 10.6836 117.794 10.8594C117.415 11.0312 117.012 11.1172 116.586 11.1172C115.977 11.1172 115.483 10.9473 115.104 10.6074C114.729 10.2676 114.542 9.83789 114.542 9.31836C114.542 8.70117 114.797 8.21289 115.309 7.85352C115.825 7.49414 116.542 7.31445 117.46 7.31445H118.731V6.59375C118.731 6.14062 118.59 5.78516 118.309 5.52734C118.032 5.26562 117.626 5.13477 117.09 5.13477C116.602 5.13477 116.198 5.25977 115.878 5.50977C115.557 5.75977 115.397 6.06055 115.397 6.41211L114.694 6.40625C114.694 5.90234 114.928 5.4668 115.397 5.09961C115.866 4.72852 116.442 4.54297 117.126 4.54297C117.833 4.54297 118.389 4.7207 118.795 5.07617C119.206 5.42773 119.417 5.91992 119.428 6.55273V9.55273C119.428 10.166 119.493 10.625 119.622 10.9297V11H118.872ZM116.669 10.4961C117.137 10.4961 117.555 10.3828 117.922 10.1562C118.294 9.92969 118.563 9.62695 118.731 9.24805V7.85352H117.477C116.778 7.86133 116.231 7.99023 115.836 8.24023C115.442 8.48633 115.245 8.82617 115.245 9.25977C115.245 9.61523 115.376 9.91016 115.637 10.1445C115.903 10.3789 116.247 10.4961 116.669 10.4961ZM125.1 9.38867C125.1 9.04102 124.96 8.76172 124.678 8.55078C124.401 8.33984 123.981 8.17578 123.419 8.05859C122.856 7.9375 122.419 7.80078 122.106 7.64844C121.797 7.49219 121.567 7.30273 121.415 7.08008C121.266 6.85742 121.192 6.58789 121.192 6.27148C121.192 5.77148 121.401 5.35938 121.819 5.03516C122.237 4.70703 122.772 4.54297 123.424 4.54297C124.131 4.54297 124.698 4.71875 125.124 5.07031C125.553 5.41797 125.768 5.87305 125.768 6.43555H125.065C125.065 6.06445 124.909 5.75586 124.596 5.50977C124.288 5.26367 123.897 5.14062 123.424 5.14062C122.963 5.14062 122.592 5.24414 122.311 5.45117C122.034 5.6543 121.895 5.91992 121.895 6.24805C121.895 6.56445 122.01 6.81055 122.241 6.98633C122.475 7.1582 122.899 7.31641 123.512 7.46094C124.129 7.60547 124.59 7.75977 124.895 7.92383C125.204 8.08789 125.432 8.28516 125.581 8.51562C125.729 8.74609 125.803 9.02539 125.803 9.35352C125.803 9.88867 125.586 10.3164 125.153 10.6367C124.723 10.957 124.161 11.1172 123.465 11.1172C122.727 11.1172 122.128 10.9395 121.667 10.584C121.21 10.2246 120.981 9.77148 120.981 9.22461H121.684C121.711 9.63477 121.883 9.95508 122.2 10.1855C122.52 10.4121 122.942 10.5254 123.465 10.5254C123.954 10.5254 124.348 10.418 124.649 10.2031C124.95 9.98828 125.1 9.7168 125.1 9.38867ZM129.84 11.1172C129.301 11.1172 128.813 10.9844 128.376 10.7188C127.942 10.4531 127.604 10.084 127.362 9.61133C127.12 9.13477 126.999 8.60156 126.999 8.01172V7.75977C126.999 7.15039 127.116 6.60156 127.35 6.11328C127.588 5.625 127.919 5.24219 128.34 4.96484C128.762 4.68359 129.219 4.54297 129.711 4.54297C130.481 4.54297 131.09 4.80664 131.54 5.33398C131.993 5.85742 132.219 6.57422 132.219 7.48438V7.87695H127.696V8.01172C127.696 8.73047 127.901 9.33008 128.311 9.81055C128.725 10.2871 129.245 10.5254 129.87 10.5254C130.245 10.5254 130.575 10.457 130.86 10.3203C131.149 10.1836 131.411 9.96484 131.645 9.66406L132.085 9.99805C131.569 10.7441 130.821 11.1172 129.84 11.1172ZM129.711 5.14062C129.184 5.14062 128.739 5.33398 128.376 5.7207C128.016 6.10742 127.797 6.62695 127.719 7.2793H131.522V7.20312C131.503 6.59375 131.329 6.09766 131.001 5.71484C130.672 5.33203 130.243 5.14062 129.711 5.14062ZM141.272 8.60938H137.399L136.52 11H135.764L138.993 2.46875H139.678L142.907 11H142.157L141.272 8.60938ZM137.622 7.99414H141.044L139.333 3.34766L137.622 7.99414ZM144.788 11H144.085V2H144.788V11ZM147.483 11H146.78V2H147.483V11ZM155.663 7.44922H153.184V11H152.458V2.46875H155.229C156.139 2.46875 156.85 2.68945 157.362 3.13086C157.874 3.57227 158.129 4.18945 158.129 4.98242C158.129 5.5293 157.969 6.01172 157.649 6.42969C157.329 6.84766 156.899 7.13672 156.36 7.29688L158.493 10.9238V11H157.725L155.663 7.44922ZM153.184 6.83398H155.393C155.999 6.83398 156.485 6.66211 156.852 6.31836C157.219 5.97461 157.403 5.5293 157.403 4.98242C157.403 4.38086 157.211 3.91406 156.829 3.58203C156.446 3.25 155.909 3.08398 155.217 3.08398H153.184V6.83398ZM160.713 11H160.01V4.66016H160.713V11ZM159.887 2.82617C159.887 2.69336 159.93 2.58203 160.016 2.49219C160.102 2.39844 160.219 2.35156 160.368 2.35156C160.516 2.35156 160.633 2.39844 160.719 2.49219C160.809 2.58203 160.854 2.69336 160.854 2.82617C160.854 2.95898 160.809 3.07031 160.719 3.16016C160.633 3.25 160.516 3.29492 160.368 3.29492C160.219 3.29492 160.102 3.25 160.016 3.16016C159.93 3.07031 159.887 2.95898 159.887 2.82617ZM162.342 7.77148C162.342 6.7793 162.561 5.99414 162.999 5.41602C163.44 4.83398 164.038 4.54297 164.792 4.54297C165.655 4.54297 166.311 4.88672 166.76 5.57422L166.795 4.66016H167.452V10.8711C167.452 11.6875 167.223 12.334 166.766 12.8105C166.309 13.2871 165.69 13.5254 164.909 13.5254C164.467 13.5254 164.045 13.4258 163.643 13.2266C163.245 13.0312 162.93 12.7695 162.7 12.4414L163.092 12.0195C163.588 12.6289 164.178 12.9336 164.862 12.9336C165.448 12.9336 165.905 12.7598 166.233 12.4121C166.561 12.0684 166.731 11.5898 166.743 10.9766V10.1797C166.294 10.8047 165.639 11.1172 164.78 11.1172C164.045 11.1172 163.456 10.8242 163.01 10.2383C162.565 9.65234 162.342 8.86133 162.342 7.86523V7.77148ZM163.051 7.89453C163.051 8.70312 163.213 9.3418 163.538 9.81055C163.862 10.2754 164.319 10.5078 164.909 10.5078C165.772 10.5078 166.383 10.1211 166.743 9.34766V6.40039C166.579 5.99414 166.342 5.68555 166.034 5.47461C165.725 5.25977 165.354 5.15234 164.92 5.15234C164.331 5.15234 163.872 5.38477 163.544 5.84961C163.215 6.31055 163.051 6.99219 163.051 7.89453ZM169.977 5.73242C170.208 5.35352 170.503 5.06055 170.862 4.85352C171.221 4.64648 171.614 4.54297 172.04 4.54297C172.719 4.54297 173.225 4.73438 173.557 5.11719C173.889 5.5 174.057 6.07422 174.061 6.83984V11H173.364V6.83398C173.36 6.26758 173.239 5.8457 173.001 5.56836C172.766 5.29102 172.389 5.15234 171.87 5.15234C171.436 5.15234 171.051 5.28906 170.715 5.5625C170.383 5.83203 170.137 6.19727 169.977 6.6582V11H169.28V2H169.977V5.73242ZM176.956 3.03711V4.66016H178.268V5.23438H176.956V9.45898C176.956 9.81055 177.018 10.0723 177.143 10.2441C177.272 10.416 177.485 10.502 177.782 10.502C177.899 10.502 178.088 10.4824 178.35 10.4434L178.379 11.0176C178.196 11.084 177.946 11.1172 177.629 11.1172C177.149 11.1172 176.799 10.9785 176.581 10.7012C176.362 10.4199 176.253 10.0078 176.253 9.46484V5.23438H175.086V4.66016H176.253V3.03711H176.956ZM183.518 9.38867C183.518 9.04102 183.378 8.76172 183.096 8.55078C182.819 8.33984 182.399 8.17578 181.836 8.05859C181.274 7.9375 180.836 7.80078 180.524 7.64844C180.215 7.49219 179.985 7.30273 179.833 7.08008C179.684 6.85742 179.61 6.58789 179.61 6.27148C179.61 5.77148 179.819 5.35938 180.237 5.03516C180.655 4.70703 181.19 4.54297 181.842 4.54297C182.549 4.54297 183.116 4.71875 183.542 5.07031C183.971 5.41797 184.186 5.87305 184.186 6.43555H183.483C183.483 6.06445 183.327 5.75586 183.014 5.50977C182.706 5.26367 182.315 5.14062 181.842 5.14062C181.381 5.14062 181.01 5.24414 180.729 5.45117C180.452 5.6543 180.313 5.91992 180.313 6.24805C180.313 6.56445 180.428 6.81055 180.659 6.98633C180.893 7.1582 181.317 7.31641 181.93 7.46094C182.547 7.60547 183.008 7.75977 183.313 7.92383C183.622 8.08789 183.85 8.28516 183.999 8.51562C184.147 8.74609 184.221 9.02539 184.221 9.35352C184.221 9.88867 184.004 10.3164 183.571 10.6367C183.141 10.957 182.579 11.1172 181.883 11.1172C181.145 11.1172 180.545 10.9395 180.085 10.584C179.628 10.2246 179.399 9.77148 179.399 9.22461H180.102C180.129 9.63477 180.301 9.95508 180.618 10.1855C180.938 10.4121 181.36 10.5254 181.883 10.5254C182.372 10.5254 182.766 10.418 183.067 10.2031C183.368 9.98828 183.518 9.7168 183.518 9.38867ZM192.073 7.44922H189.594V11H188.868V2.46875H191.639C192.549 2.46875 193.26 2.68945 193.772 3.13086C194.284 3.57227 194.54 4.18945 194.54 4.98242C194.54 5.5293 194.379 6.01172 194.059 6.42969C193.739 6.84766 193.309 7.13672 192.77 7.29688L194.903 10.9238V11H194.135L192.073 7.44922ZM189.594 6.83398H191.803C192.409 6.83398 192.895 6.66211 193.262 6.31836C193.629 5.97461 193.813 5.5293 193.813 4.98242C193.813 4.38086 193.622 3.91406 193.239 3.58203C192.856 3.25 192.319 3.08398 191.628 3.08398H189.594V6.83398ZM198.794 11.1172C198.254 11.1172 197.766 10.9844 197.329 10.7188C196.895 10.4531 196.557 10.084 196.315 9.61133C196.073 9.13477 195.952 8.60156 195.952 8.01172V7.75977C195.952 7.15039 196.069 6.60156 196.303 6.11328C196.542 5.625 196.872 5.24219 197.294 4.96484C197.715 4.68359 198.172 4.54297 198.665 4.54297C199.434 4.54297 200.044 4.80664 200.493 5.33398C200.946 5.85742 201.172 6.57422 201.172 7.48438V7.87695H196.649V8.01172C196.649 8.73047 196.854 9.33008 197.264 9.81055C197.678 10.2871 198.198 10.5254 198.823 10.5254C199.198 10.5254 199.528 10.457 199.813 10.3203C200.102 10.1836 200.364 9.96484 200.598 9.66406L201.038 9.99805C200.522 10.7441 199.774 11.1172 198.794 11.1172ZM198.665 5.14062C198.137 5.14062 197.692 5.33398 197.329 5.7207C196.969 6.10742 196.751 6.62695 196.672 7.2793H200.475V7.20312C200.456 6.59375 200.282 6.09766 199.954 5.71484C199.626 5.33203 199.196 5.14062 198.665 5.14062ZM206.335 9.38867C206.335 9.04102 206.194 8.76172 205.913 8.55078C205.635 8.33984 205.215 8.17578 204.653 8.05859C204.09 7.9375 203.653 7.80078 203.34 7.64844C203.032 7.49219 202.801 7.30273 202.649 7.08008C202.501 6.85742 202.426 6.58789 202.426 6.27148C202.426 5.77148 202.635 5.35938 203.053 5.03516C203.471 4.70703 204.006 4.54297 204.659 4.54297C205.366 4.54297 205.932 4.71875 206.358 5.07031C206.788 5.41797 207.003 5.87305 207.003 6.43555H206.299C206.299 6.06445 206.143 5.75586 205.831 5.50977C205.522 5.26367 205.131 5.14062 204.659 5.14062C204.198 5.14062 203.827 5.24414 203.545 5.45117C203.268 5.6543 203.129 5.91992 203.129 6.24805C203.129 6.56445 203.245 6.81055 203.475 6.98633C203.71 7.1582 204.133 7.31641 204.747 7.46094C205.364 7.60547 205.825 7.75977 206.129 7.92383C206.438 8.08789 206.667 8.28516 206.815 8.51562C206.963 8.74609 207.038 9.02539 207.038 9.35352C207.038 9.88867 206.821 10.3164 206.387 10.6367C205.958 10.957 205.395 11.1172 204.7 11.1172C203.961 11.1172 203.362 10.9395 202.901 10.584C202.444 10.2246 202.215 9.77148 202.215 9.22461H202.919C202.946 9.63477 203.118 9.95508 203.434 10.1855C203.754 10.4121 204.176 10.5254 204.7 10.5254C205.188 10.5254 205.583 10.418 205.883 10.2031C206.184 9.98828 206.335 9.7168 206.335 9.38867ZM211.075 11.1172C210.536 11.1172 210.047 10.9844 209.61 10.7188C209.176 10.4531 208.838 10.084 208.596 9.61133C208.354 9.13477 208.233 8.60156 208.233 8.01172V7.75977C208.233 7.15039 208.35 6.60156 208.585 6.11328C208.823 5.625 209.153 5.24219 209.575 4.96484C209.997 4.68359 210.454 4.54297 210.946 4.54297C211.715 4.54297 212.325 4.80664 212.774 5.33398C213.227 5.85742 213.454 6.57422 213.454 7.48438V7.87695H208.93V8.01172C208.93 8.73047 209.135 9.33008 209.545 9.81055C209.96 10.2871 210.479 10.5254 211.104 10.5254C211.479 10.5254 211.809 10.457 212.094 10.3203C212.383 10.1836 212.645 9.96484 212.879 9.66406L213.319 9.99805C212.803 10.7441 212.055 11.1172 211.075 11.1172ZM210.946 5.14062C210.419 5.14062 209.973 5.33398 209.61 5.7207C209.251 6.10742 209.032 6.62695 208.954 7.2793H212.756V7.20312C212.737 6.59375 212.563 6.09766 212.235 5.71484C211.907 5.33203 211.477 5.14062 210.946 5.14062ZM217.749 5.25781C217.6 5.23047 217.442 5.2168 217.274 5.2168C216.836 5.2168 216.465 5.33984 216.161 5.58594C215.86 5.82812 215.645 6.18164 215.516 6.64648V11H214.819V4.66016H215.504L215.516 5.66797C215.887 4.91797 216.483 4.54297 217.303 4.54297C217.499 4.54297 217.653 4.56836 217.766 4.61914L217.749 5.25781ZM220.942 10.0332L222.87 4.66016H223.59L221.223 11H220.655L218.276 4.66016H218.997L220.942 10.0332ZM227.118 11.1172C226.579 11.1172 226.09 10.9844 225.653 10.7188C225.219 10.4531 224.881 10.084 224.639 9.61133C224.397 9.13477 224.276 8.60156 224.276 8.01172V7.75977C224.276 7.15039 224.393 6.60156 224.628 6.11328C224.866 5.625 225.196 5.24219 225.618 4.96484C226.04 4.68359 226.497 4.54297 226.989 4.54297C227.758 4.54297 228.368 4.80664 228.817 5.33398C229.27 5.85742 229.497 6.57422 229.497 7.48438V7.87695H224.973V8.01172C224.973 8.73047 225.178 9.33008 225.588 9.81055C226.003 10.2871 226.522 10.5254 227.147 10.5254C227.522 10.5254 227.852 10.457 228.137 10.3203C228.426 10.1836 228.688 9.96484 228.922 9.66406L229.362 9.99805C228.846 10.7441 228.098 11.1172 227.118 11.1172ZM226.989 5.14062C226.461 5.14062 226.016 5.33398 225.653 5.7207C225.294 6.10742 225.075 6.62695 224.997 7.2793H228.799V7.20312C228.78 6.59375 228.606 6.09766 228.278 5.71484C227.95 5.33203 227.52 5.14062 226.989 5.14062ZM230.581 7.77148C230.581 6.78711 230.799 6.00391 231.237 5.42188C231.678 4.83594 232.276 4.54297 233.03 4.54297C233.885 4.54297 234.538 4.88086 234.987 5.55664V2H235.684V11H235.028L234.999 10.1562C234.549 10.7969 233.889 11.1172 233.018 11.1172C232.288 11.1172 231.698 10.8242 231.249 10.2383C230.803 9.64844 230.581 8.85352 230.581 7.85352V7.77148ZM231.29 7.89453C231.29 8.70312 231.452 9.3418 231.776 9.81055C232.1 10.2754 232.557 10.5078 233.147 10.5078C234.01 10.5078 234.624 10.127 234.987 9.36523V6.38867C234.624 5.56445 234.014 5.15234 233.159 5.15234C232.569 5.15234 232.11 5.38477 231.782 5.84961C231.454 6.31055 231.29 6.99219 231.29 7.89453ZM237.465 10.5781C237.465 10.4414 237.508 10.3262 237.594 10.2324C237.684 10.1348 237.807 10.0859 237.963 10.0859C238.12 10.0859 238.243 10.1348 238.333 10.2324C238.422 10.3262 238.467 10.4414 238.467 10.5781C238.467 10.7148 238.422 10.8281 238.333 10.918C238.243 11.0039 238.12 11.0469 237.963 11.0469C237.807 11.0469 237.684 11.0039 237.594 10.918C237.508 10.8281 237.465 10.7148 237.465 10.5781Z" fill="white"/>
</svg>
