<svg width="18" height="15" viewBox="0 0 18 15" fill="none" xmlns="http://www.w3.org/2000/svg">
<path d="M5.58326 0.171631C3.29956 0.171631 1.5207 1.78838 1.05022 4.2886C0.387661 7.77274 2.4511 12.383 8.55506 14.8263L8.59207 14.8397C8.85523 14.9383 9.14477 14.9383 9.40793 14.8397L9.44934 14.8237C15.5507 12.3306 17.6123 7.73452 16.9489 4.28682V4.28149C16.4537 1.80793 14.6678 0.208961 12.3982 0.208961C11.3084 0.208961 10.1445 0.59826 9.00617 1.33953C7.85462 0.564485 6.70925 0.171631 5.58326 0.171631ZM12.3974 1.63106C13.9894 1.63106 15.2026 2.75362 15.5692 4.56413C16.3295 8.52734 12.8317 11.8853 9.00264 13.4771C3.7066 11.3271 1.8881 7.45543 2.43876 4.5588C2.78238 2.73229 3.98854 1.59728 5.58678 1.59728C6.51894 1.59728 7.55418 2.00613 8.58238 2.7794C8.70285 2.86998 8.84888 2.91936 8.99913 2.92032C9.14939 2.92128 9.29602 2.87377 9.41762 2.78473C10.4414 2.02925 11.4731 1.63106 12.3974 1.63106Z" fill="white"/>
</svg>
