<svg width="102" height="18" viewBox="0 0 102 18" fill="none" xmlns="http://www.w3.org/2000/svg">
<path d="M10.5576 14H7.9209V8.51562H2.7793V14H0.142578V1.20312H2.7793V6.38867H7.9209V1.20312H10.5576V14ZM17.0791 14.1758C15.6846 14.1758 14.5479 13.748 13.6689 12.8926C12.7959 12.0371 12.3594 10.8975 12.3594 9.47363V9.22754C12.3594 8.27246 12.5439 7.41992 12.9131 6.66992C13.2822 5.91406 13.8037 5.33398 14.4775 4.92969C15.1572 4.51953 15.9307 4.31445 16.7979 4.31445C18.0986 4.31445 19.1211 4.72461 19.8652 5.54492C20.6152 6.36523 20.9902 7.52832 20.9902 9.03418V10.0713H14.9346C15.0166 10.6924 15.2627 11.1904 15.6729 11.5654C16.0889 11.9404 16.6133 12.1279 17.2461 12.1279C18.2246 12.1279 18.9893 11.7734 19.54 11.0645L20.7881 12.4619C20.4072 13.001 19.8916 13.4229 19.2412 13.7275C18.5908 14.0264 17.8701 14.1758 17.0791 14.1758ZM16.7891 6.37109C16.2852 6.37109 15.875 6.54102 15.5586 6.88086C15.248 7.2207 15.0488 7.70703 14.9609 8.33984H18.4941V8.1377C18.4824 7.5752 18.3301 7.1416 18.0371 6.83691C17.7441 6.52637 17.3281 6.37109 16.7891 6.37109ZM25.1211 14H22.5723V0.5H25.1211V14ZM35.7822 9.33301C35.7822 10.7979 35.4482 11.9727 34.7803 12.8574C34.1182 13.7363 33.2217 14.1758 32.0908 14.1758C31.1299 14.1758 30.3535 13.8418 29.7617 13.1738V17.6562H27.2217V4.49023H29.5771L29.665 5.42188C30.2803 4.68359 31.083 4.31445 32.0732 4.31445C33.2451 4.31445 34.1562 4.74805 34.8066 5.61523C35.457 6.48242 35.7822 7.67773 35.7822 9.20117V9.33301ZM33.2422 9.14844C33.2422 8.26367 33.084 7.58105 32.7676 7.10059C32.457 6.62012 32.0029 6.37988 31.4053 6.37988C30.6084 6.37988 30.0605 6.68457 29.7617 7.29395V11.1875C30.0723 11.8145 30.626 12.1279 31.4229 12.1279C32.6357 12.1279 33.2422 11.1348 33.2422 9.14844ZM44.7559 11.3633H40.1328L39.2539 14H36.4502L41.2139 1.20312H43.6572L48.4473 14H45.6436L44.7559 11.3633ZM40.8447 9.22754H44.0439L42.4355 4.4375L40.8447 9.22754ZM51.3916 4.49023L51.4707 5.58887C52.1504 4.73926 53.0615 4.31445 54.2041 4.31445C55.2119 4.31445 55.9619 4.61035 56.4541 5.20215C56.9463 5.79395 57.1982 6.67871 57.21 7.85645V14H54.6699V7.91797C54.6699 7.37891 54.5527 6.98926 54.3184 6.74902C54.084 6.50293 53.6943 6.37988 53.1494 6.37988C52.4346 6.37988 51.8984 6.68457 51.541 7.29395V14H49.001V4.49023H51.3916ZM61.8242 14H59.2754V4.49023H61.8242V14ZM59.126 2.0293C59.126 1.64844 59.252 1.33496 59.5039 1.08887C59.7617 0.842773 60.1104 0.719727 60.5498 0.719727C60.9834 0.719727 61.3291 0.842773 61.5869 1.08887C61.8447 1.33496 61.9736 1.64844 61.9736 2.0293C61.9736 2.41602 61.8418 2.73242 61.5781 2.97852C61.3203 3.22461 60.9775 3.34766 60.5498 3.34766C60.1221 3.34766 59.7764 3.22461 59.5127 2.97852C59.2549 2.73242 59.126 2.41602 59.126 2.0293ZM66.3066 4.49023L66.3857 5.55371C67.0596 4.72754 67.9707 4.31445 69.1191 4.31445C70.3438 4.31445 71.1846 4.79785 71.6416 5.76465C72.3096 4.79785 73.2617 4.31445 74.498 4.31445C75.5293 4.31445 76.2969 4.61621 76.8008 5.21973C77.3047 5.81738 77.5566 6.71973 77.5566 7.92676V14H75.0078V7.93555C75.0078 7.39648 74.9023 7.00391 74.6914 6.75781C74.4805 6.50586 74.1084 6.37988 73.5752 6.37988C72.8135 6.37988 72.2861 6.74316 71.9932 7.46973L72.002 14H69.4619V7.94434C69.4619 7.39355 69.3535 6.99512 69.1367 6.74902C68.9199 6.50293 68.5508 6.37988 68.0293 6.37988C67.3086 6.37988 66.7871 6.67871 66.4648 7.27637V14H63.9248V4.49023H66.3066ZM85.0273 14C84.9102 13.7715 84.8252 13.4873 84.7725 13.1475C84.1572 13.833 83.3574 14.1758 82.373 14.1758C81.4414 14.1758 80.668 13.9062 80.0527 13.3672C79.4434 12.8281 79.1387 12.1484 79.1387 11.3281C79.1387 10.3203 79.5107 9.54688 80.2549 9.00781C81.0049 8.46875 82.0859 8.19629 83.498 8.19043H84.667V7.64551C84.667 7.20605 84.5527 6.85449 84.3242 6.59082C84.1016 6.32715 83.7471 6.19531 83.2607 6.19531C82.833 6.19531 82.4961 6.29785 82.25 6.50293C82.0098 6.70801 81.8896 6.98926 81.8896 7.34668H79.3496C79.3496 6.7959 79.5195 6.28613 79.8594 5.81738C80.1992 5.34863 80.6797 4.98242 81.3008 4.71875C81.9219 4.44922 82.6191 4.31445 83.3926 4.31445C84.5645 4.31445 85.4932 4.61035 86.1787 5.20215C86.8701 5.78809 87.2158 6.61426 87.2158 7.68066V11.8027C87.2217 12.7051 87.3477 13.3877 87.5938 13.8506V14H85.0273ZM82.9268 12.2334C83.3018 12.2334 83.6475 12.1514 83.9639 11.9873C84.2803 11.8174 84.5146 11.5918 84.667 11.3105V9.67578H83.7178C82.4463 9.67578 81.7695 10.1152 81.6875 10.9941L81.6787 11.1436C81.6787 11.46 81.79 11.7207 82.0127 11.9258C82.2354 12.1309 82.54 12.2334 82.9268 12.2334ZM91.8477 14H89.2988V0.5H91.8477V14ZM99.0986 11.3721C99.0986 11.0615 98.9434 10.8184 98.6328 10.6426C98.3281 10.4609 97.8359 10.2998 97.1562 10.1592C94.8945 9.68457 93.7637 8.72363 93.7637 7.27637C93.7637 6.43262 94.1123 5.72949 94.8096 5.16699C95.5127 4.59863 96.4297 4.31445 97.5605 4.31445C98.7676 4.31445 99.7314 4.59863 100.452 5.16699C101.179 5.73535 101.542 6.47363 101.542 7.38184H99.002C99.002 7.01855 98.8848 6.71973 98.6504 6.48535C98.416 6.24512 98.0498 6.125 97.5518 6.125C97.124 6.125 96.793 6.22168 96.5586 6.41504C96.3242 6.6084 96.207 6.85449 96.207 7.15332C96.207 7.43457 96.3389 7.66309 96.6025 7.83887C96.8721 8.00879 97.3232 8.1582 97.9561 8.28711C98.5889 8.41016 99.1221 8.55078 99.5557 8.70898C100.897 9.20117 101.568 10.0537 101.568 11.2666C101.568 12.1338 101.196 12.8369 100.452 13.376C99.708 13.9092 98.7471 14.1758 97.5693 14.1758C96.7725 14.1758 96.0635 14.0352 95.4424 13.7539C94.8271 13.4668 94.3438 13.0771 93.9922 12.585C93.6406 12.0869 93.4648 11.5508 93.4648 10.9766H95.873C95.8965 11.4277 96.0635 11.7734 96.374 12.0137C96.6846 12.2539 97.1006 12.374 97.6221 12.374C98.1084 12.374 98.4746 12.2832 98.7207 12.1016C98.9727 11.9141 99.0986 11.6709 99.0986 11.3721Z" fill="white"/>
</svg>
