<svg width="16" height="16" viewBox="0 0 16 16" fill="none" xmlns="http://www.w3.org/2000/svg">
<path d="M13.428 12.2166C13.4237 13.9564 11.9634 15.4371 10.3042 15.446C9.88135 15.4482 9.52362 15.2621 9.18882 15.0186C7.88076 14.0674 7.76463 14.0649 6.46058 15.0194C5.99021 15.3636 5.49307 15.4999 4.90501 15.402C3.42524 15.1559 2.24907 13.8286 2.22175 12.3241C2.2117 11.7718 2.40376 11.2914 2.77073 10.8791C3.07435 10.5379 3.42349 10.2459 3.78483 9.97174C4.39957 9.50539 4.8963 8.93782 5.31856 8.29672C5.62887 7.82556 5.92487 7.34261 6.33667 6.94713C7.21551 6.10312 8.43292 6.10284 9.31136 6.94672C9.61497 7.23815 9.86568 7.57299 10.082 7.92976C10.644 8.85562 11.3696 9.62303 12.2306 10.2781C12.7824 10.6978 13.2742 11.1837 13.3911 11.921C13.4104 12.0422 13.4216 12.1643 13.4281 12.2165L13.428 12.2166Z" fill="white"/>
<path d="M3.42671e-05 6.34473C0.0094094 5.75303 0.11615 5.25455 0.401556 4.80695C0.990862 3.88243 2.05009 3.70833 2.90655 4.3911C3.94356 5.21783 4.28053 6.90921 3.639 8.06721C3.05481 9.12205 1.86028 9.32077 0.970325 8.50772C0.315808 7.90984 0.0429945 7.14352 0 6.34463L3.42671e-05 6.34473Z" fill="white"/>
<path d="M3.61312 2.35833C3.62102 1.93631 3.75964 1.35976 4.11709 0.850546C4.94115 -0.322951 6.37727 -0.280471 7.09525 0.967601C7.73115 2.07359 7.70142 3.20193 6.98623 4.26733C6.29503 5.29669 5.04052 5.34009 4.24001 4.39389C3.85121 3.93463 3.61389 3.23647 3.6131 2.35831L3.61312 2.35833Z" fill="white"/>
<path d="M12.0401 2.62225C12.0081 3.30811 11.813 3.99128 11.2741 4.53663C10.5635 5.25608 9.56482 5.2447 8.85901 4.51708C7.8615 3.48878 7.88265 1.5322 8.90227 0.528279C9.66997 -0.227893 10.7299 -0.160796 11.4077 0.683367C11.8493 1.23314 12.0281 1.8689 12.0401 2.6224L12.0401 2.62225Z" fill="white"/>
<path d="M15.6364 6.13104C15.5936 7.12159 15.2436 7.97054 14.4397 8.58607C13.3291 9.43666 11.9544 8.93671 11.6545 7.57128C11.4109 6.46234 11.7421 5.49939 12.5181 4.70736C13.0411 4.17381 13.6933 3.88022 14.4558 4.15382C15.2476 4.43801 15.53 5.10322 15.6346 5.87373C15.6463 5.95823 15.6365 6.04542 15.6365 6.131L15.6364 6.13104Z" fill="white"/>
</svg>
