<svg width="88" height="24" viewBox="0 0 88 24" fill="none" xmlns="http://www.w3.org/2000/svg">
<path d="M9.50977 17H7.45215V8.70801H3.4668V17H1.41602V7.04688H9.50977V17ZM17.3027 12.6865H13.3652V15.3525H17.9863V17H11.3145V7.04688H17.9727V8.70801H13.3652V11.0801H17.3027V12.6865ZM21.2402 13.4932V17H19.1895V7.04688H23.0723C23.8197 7.04688 24.4759 7.18359 25.041 7.45703C25.6107 7.73047 26.0482 8.12012 26.3535 8.62598C26.6589 9.12728 26.8115 9.69922 26.8115 10.3418C26.8115 11.3171 26.4766 12.0872 25.8066 12.6523C25.1413 13.2129 24.2184 13.4932 23.0381 13.4932H21.2402ZM21.2402 11.832H23.0723C23.6146 11.832 24.027 11.7044 24.3096 11.4492C24.5967 11.194 24.7402 10.8294 24.7402 10.3555C24.7402 9.86784 24.5967 9.47363 24.3096 9.17285C24.0225 8.87207 23.626 8.71712 23.1201 8.70801H21.2402V11.832ZM34.2148 12.6865H30.2773V15.3525H34.8984V17H28.2266V7.04688H34.8848V8.70801H30.2773V11.0801H34.2148V12.6865ZM42.0693 7.04688H44.127V17H42.0693V10.3896L38.084 17H36.0332V7.04688H38.084V13.6709L42.0693 7.04688ZM42.4658 4.42871C42.4658 5.03483 42.2471 5.52474 41.8096 5.89844C41.3766 6.27214 40.807 6.45898 40.1006 6.45898C39.3942 6.45898 38.8223 6.27441 38.3848 5.90527C37.9518 5.53613 37.7354 5.04395 37.7354 4.42871H39.1367C39.1367 4.71582 39.221 4.93913 39.3896 5.09863C39.5628 5.25358 39.7998 5.33105 40.1006 5.33105C40.3968 5.33105 40.6292 5.25358 40.7979 5.09863C40.9665 4.93913 41.0508 4.71582 41.0508 4.42871H42.4658ZM53.3965 8.70801H50.3477V17H48.2969V8.70801H45.2891V7.04688H53.3965V8.70801ZM60.54 7.04688H62.5977V17H60.54V10.3896L56.5547 17H54.5039V7.04688H56.5547V13.6709L60.54 7.04688Z" fill="white"/>
<path d="M81.428 16.2166C81.4237 17.9564 79.9633 19.4371 78.3041 19.446C77.8813 19.4482 77.5236 19.2621 77.1888 19.0186C75.8807 18.0674 75.7646 18.0649 74.4605 19.0194C73.9902 19.3636 73.493 19.4999 72.905 19.402C71.4252 19.1559 70.249 17.8286 70.2217 16.3241C70.2117 15.7718 70.4037 15.2914 70.7707 14.8791C71.0743 14.5379 71.4235 14.2459 71.7848 13.9717C72.3995 13.5054 72.8963 12.9378 73.3185 12.2967C73.6288 11.8256 73.9248 11.3426 74.3366 10.9471C75.2155 10.1031 76.4329 10.1028 77.3113 10.9467C77.6149 11.2382 77.8657 11.573 78.082 11.9298C78.6439 12.8556 79.3696 13.623 80.2306 14.2781C80.7824 14.6978 81.2742 15.1837 81.3911 15.921C81.4104 16.0422 81.4216 16.1643 81.428 16.2165L81.428 16.2166Z" fill="white"/>
<path d="M68 10.3447C68.0094 9.75297 68.1161 9.25449 68.4015 8.80689C68.9908 7.88237 70.0501 7.70827 70.9065 8.39104C71.9435 9.21777 72.2805 10.9092 71.639 12.0672C71.0548 13.122 69.8603 13.3207 68.9703 12.5077C68.3158 11.9098 68.043 11.1435 68 10.3446L68 10.3447Z" fill="white"/>
<path d="M71.6131 6.35827C71.621 5.93625 71.7596 5.3597 72.1171 4.85049C72.9411 3.67699 74.3772 3.71947 75.0952 4.96754C75.7311 6.07353 75.7014 7.20187 74.9862 8.26727C74.295 9.29663 73.0405 9.34003 72.24 8.39383C71.8512 7.93457 71.6139 7.23641 71.6131 6.35825L71.6131 6.35827Z" fill="white"/>
<path d="M80.0401 6.62219C80.0081 7.30805 79.813 7.99122 79.2741 8.53657C78.5635 9.25602 77.5648 9.24464 76.859 8.51702C75.8615 7.48872 75.8827 5.53214 76.9023 4.52822C77.67 3.77205 78.7299 3.83914 79.4077 4.68331C79.8493 5.23308 80.0281 5.86884 80.0401 6.62233L80.0401 6.62219Z" fill="white"/>
<path d="M83.6364 10.131C83.5936 11.1215 83.2436 11.9705 82.4397 12.586C81.3291 13.4366 79.9544 12.9366 79.6545 11.5712C79.4109 10.4623 79.7421 9.49933 80.5181 8.7073C81.0411 8.17374 81.6933 7.88016 82.4558 8.15376C83.2476 8.43795 83.53 9.10316 83.6346 9.87366C83.6463 9.95817 83.6365 10.0454 83.6365 10.1309L83.6364 10.131Z" fill="white"/>
</svg>
