<svg width="40" height="40" viewBox="0 0 40 40" fill="none" xmlns="http://www.w3.org/2000/svg">
<path d="M39.7355 15.1997L20.4527 0.149505C20.3295 0.0537917 20.1783 0.00189209 20.0228 0.00189209C19.8672 0.00189209 19.716 0.0537917 19.5928 0.149505L0.264171 15.1997C0.180195 15.2667 0.112661 15.3523 0.0668184 15.4499C0.0209758 15.5474 -0.00193972 15.6544 -0.000146443 15.7623V23.711C-0.00145063 23.8433 0.0342193 23.9734 0.102779 24.0862C0.17134 24.1991 0.270019 24.2902 0.387519 24.3491C0.501606 24.4078 0.630082 24.432 0.757479 24.4188C0.884875 24.4055 1.00576 24.3554 1.10558 24.2745L4.31703 21.7538V39.2936C4.31703 39.6864 4.66946 40.0046 5.06241 40.0046H34.5946C34.785 40.0066 34.9686 39.9333 35.1061 39.8004C35.2436 39.6675 35.324 39.4856 35.3302 39.2936V21.4792L38.8915 24.2709C39.0122 24.3671 39.1615 24.4194 39.3153 24.4193C39.4197 24.4193 39.5226 24.3943 39.6157 24.3465C39.7328 24.2874 39.831 24.1961 39.899 24.0832C39.9669 23.9703 40.0019 23.8404 39.9998 23.7083V15.7597C40.0012 15.6522 39.978 15.5458 39.9322 15.4487C39.8864 15.3516 39.8191 15.2664 39.7355 15.1997ZM33.9205 38.5754H5.72672V20.657L20.0201 9.55933L33.9205 20.3797V38.5754ZM38.5901 22.256L20.4501 8.09902C20.3284 8.00287 20.1782 7.95062 20.0236 7.95062C19.869 7.95062 19.7189 8.00287 19.5972 8.09902L1.40954 22.2622V16.109L20.0245 1.61071L38.5901 16.109V22.256Z" fill="white"/>
</svg>
